<?xml version="1.0" encoding="UTF-8"?>
<svg id="_图层_2" data-name="图层 2" xmlns="http://www.w3.org/2000/svg" viewBox="0 0 44.51 51.31">
  <defs>
    <style>
      .cls-1, .cls-2 {
        fill: #9ad4d1;
      }

      .cls-3 {
        fill: #424499;
      }

      .cls-4 {
        fill: #b79cc8;
      }

      .cls-4, .cls-5, .cls-6, .cls-7, .cls-8, .cls-9, .cls-10, .cls-2, .cls-11 {
        fill-rule: evenodd;
      }

      .cls-5 {
        fill: #979692;
      }

      .cls-6 {
        fill: #90b2de;
      }

      .cls-7 {
        fill: #ee84b2;
      }

      .cls-8 {
        fill: #f5ac61;
      }

      .cls-9 {
        fill: #ec7080;
      }

      .cls-10, .cls-12 {
        fill: #abd5a0;
      }

      .cls-13, .cls-11 {
        fill: #fedc66;
      }

      .cls-14 {
        fill: #231815;
      }
    </style>
  </defs>
  <g id="_图层_1-2" data-name="图层 1">
    <path class="cls-1" d="M34.22,28.41v5.32c0,4.36-2.85,7.15-6.49,8.37-1.4,.47-2.91,.7-4.42,.7s-3.03-.23-4.42-.7c-3.64-1.22-6.49-4-6.49-8.37v-4.76h-.93l.68-.88,.68-.88,.68,.88,.68,.88h-.93v4.76c0,3.93,2.59,6.45,5.91,7.56,1.31,.44,2.73,.65,4.16,.65s2.85-.22,4.16-.65c3.32-1.11,5.91-3.63,5.91-7.56v-5.32h.85Z"/>
    <path class="cls-13" d="M34.22,17.57v5.32h-.85v-5.32c0-3.93-2.59-6.45-5.91-7.56-1.31-.44-2.73-.65-4.16-.65s-2.85,.22-4.16,.65c-3.32,1.11-5.91,3.63-5.91,7.56v4.76h.93l-.68,.88-.68,.88-.68-.88-.68-.88h.93v-4.76c0-4.36,2.85-7.15,6.49-8.37,1.4-.47,2.91-.7,4.42-.7s3.03,.23,4.42,.7c3.64,1.22,6.49,4,6.49,8.37h0Z"/>
    <path class="cls-3" d="M43.58,28.98v5.39c0,8.14-5.27,13.34-12.02,15.62-2.61,.88-5.43,1.32-8.25,1.32s-5.64-.44-8.25-1.32c-6.75-2.27-12.02-7.48-12.02-15.62v-5.96h.85v5.96c0,7.71,5.02,12.65,11.44,14.81,2.51,.85,5.25,1.27,7.98,1.27s5.47-.42,7.98-1.27c6.42-2.16,11.44-7.1,11.44-14.81v-5.39h-.93l.68-.88,.68-.88,.68,.88,.68,.88h-.93Z"/>
    <path class="cls-12" d="M43.58,16.93v5.39h.93l-.68,.88-.68,.88-.68-.88-.68-.88h.93v-5.39c0-7.71-5.02-12.65-11.44-14.81-2.51-.85-5.25-1.27-7.98-1.27s-5.47,.42-7.98,1.27C8.91,4.29,3.89,9.22,3.89,16.93v5.96h-.85v-5.96C3.04,8.8,8.31,3.59,15.06,1.32c2.61-.88,5.43-1.32,8.25-1.32s5.64,.44,8.25,1.32c6.75,2.27,12.02,7.48,12.02,15.62h0Z"/>
    <path class="cls-9" d="M24.85,45.01c-.27,.03-.5,.19-.71,.47-.47,.63-.61,1.65-.5,2.07,.14,.56,.23,.9,1.88,.61,1.01-.18,1.54-.29,1.57-.75,.04-.45-.41-1.39-1.07-1.95-.28-.24-.71-.51-1.18-.45h0Zm-.31,3.55c-.81,0-1.05-.32-1.2-.94-.12-.48,.02-1.59,.54-2.3,.26-.35,.57-.55,.92-.59,.47-.06,.97,.12,1.43,.53,.68,.59,1.21,1.59,1.16,2.18-.06,.69-.84,.83-1.82,1.01-.42,.07-.76,.11-1.04,.11h0Z"/>
    <path class="cls-9" d="M24.85,6.3c-.27-.03-.5-.19-.71-.47-.47-.63-.61-1.65-.5-2.07,.14-.56,.23-.9,1.88-.61,1.01,.18,1.54,.29,1.57,.75,.04,.45-.41,1.39-1.07,1.95-.28,.24-.71,.51-1.18,.45h0Zm-.31-3.54c-.81,0-1.05,.32-1.2,.94-.12,.48,.02,1.59,.54,2.3,.26,.35,.57,.55,.92,.59,.47,.06,.97-.12,1.43-.53,.68-.59,1.21-1.59,1.16-2.18-.06-.69-.84-.83-1.82-1.01-.42-.07-.76-.11-1.04-.11h0Z"/>
    <path class="cls-5" d="M21.74,45.01c.27,.03,.5,.19,.71,.47,.47,.63,.61,1.65,.5,2.07-.14,.56-.23,.9-1.88,.61-1.01-.18-1.54-.29-1.57-.75-.04-.45,.41-1.39,1.07-1.95,.28-.24,.71-.51,1.18-.45h0Zm.31,3.55c.81,0,1.05-.32,1.2-.94,.12-.48-.02-1.59-.54-2.3-.26-.35-.57-.55-.92-.59-.47-.06-.97,.12-1.43,.53-.68,.59-1.21,1.59-1.16,2.18,.06,.69,.84,.83,1.82,1.01,.42,.07,.76,.11,1.04,.11h0Zm.03-.75c.1,0,.17,0,.18,0l.1-.1-.11-.09s-1.05,.07-2.03-.39l-.14,.04,.05,.13c.8,.37,1.61,.42,1.96,.42h0Z"/>
    <path class="cls-5" d="M21.74,6.3c.27-.03,.5-.19,.71-.47,.47-.63,.61-1.65,.5-2.07-.14-.56-.23-.9-1.88-.61-1.01,.18-1.54,.29-1.57,.75-.04,.45,.41,1.39,1.07,1.95,.28,.24,.71,.51,1.18,.45h0Zm.31-3.54c.81,0,1.05,.32,1.2,.94,.12,.48-.02,1.59-.54,2.3-.26,.35-.57,.55-.92,.59-.47,.06-.97-.12-1.43-.53-.68-.59-1.21-1.59-1.16-2.18,.06-.69,.84-.83,1.82-1.01,.42-.07,.76-.11,1.04-.11h0Zm.03,.75c.1,0,.17,0,.18,0l.1,.1-.11,.09s-1.05-.07-2.03,.39l-.14-.04,.05-.13c.8-.37,1.61-.42,1.96-.42h0Z"/>
    <path class="cls-9" d="M24.51,47.81c-.1,0-.17,0-.18,0l-.1-.1,.11-.09s1.05,.07,2.03-.39l.14,.04-.05,.13c-.8,.37-1.61,.42-1.96,.42h0Z"/>
    <path class="cls-9" d="M24.51,3.5c-.1,0-.17,0-.18,0l-.1,.1,.11,.09s1.05-.07,2.03,.39l.14-.04-.05-.13c-.8-.37-1.61-.42-1.96-.42h0Z"/>
    <path class="cls-8" d="M28.5,44.25c-.21,0-.4,.04-.56,.11-.25,.12-.43,.34-.52,.65-.17,.6,.02,1.42,.31,1.8,.37,.49,.59,.79,2.03,.04,.94-.49,1.31-.73,1.17-1.14-.13-.38-.76-.97-1.56-1.28-.31-.12-.6-.18-.87-.18h0Zm-.04,3.34c-.42,0-.69-.23-.99-.62-.32-.43-.55-1.33-.36-2.04,.11-.39,.34-.68,.68-.84,.58-.27,1.24-.11,1.69,.06,.81,.32,1.55,.94,1.73,1.46,.23,.67-.45,1.03-1.31,1.48-.65,.34-1.1,.49-1.45,.49h0Z"/>
    <path class="cls-8" d="M28.5,7.06c-.21,0-.4-.04-.56-.11-.26-.12-.43-.34-.52-.65-.17-.6,.02-1.42,.31-1.8,.37-.49,.59-.79,2.03-.04,.94,.49,1.31,.73,1.17,1.14-.13,.38-.76,.97-1.56,1.28-.31,.12-.6,.18-.87,.18h0Zm-.04-3.34c-.42,0-.69,.23-.99,.62-.32,.43-.55,1.33-.36,2.04,.11,.39,.34,.68,.68,.84,.58,.27,1.24,.11,1.69-.06,.81-.32,1.55-.94,1.73-1.46,.23-.67-.45-1.03-1.31-1.48-.65-.34-1.1-.49-1.45-.49h0Z"/>
    <path class="cls-5" d="M18.09,44.25c.21,0,.4,.04,.56,.11,.26,.12,.43,.34,.52,.65,.17,.6-.02,1.42-.31,1.8-.37,.49-.59,.79-2.03,.04-.94-.49-1.31-.73-1.17-1.14,.13-.38,.76-.97,1.56-1.28,.31-.12,.6-.18,.87-.18h0Zm.04,3.34c.42,0,.69-.23,.99-.62,.32-.43,.55-1.33,.36-2.04-.11-.39-.34-.68-.68-.84-.58-.27-1.24-.11-1.69,.06-.81,.32-1.55,.94-1.73,1.46-.23,.67,.45,1.03,1.31,1.48,.65,.34,1.1,.49,1.45,.49h0Zm-.78,.08l.1-.09-.1-.1c-.58-.01-1.82-.66-1.91-.94l-.13-.06-.07,.12c.13,.41,1.51,1.07,2.1,1.08h0Z"/>
    <path class="cls-5" d="M18.09,7.06c.21,0,.4-.04,.56-.11,.26-.12,.43-.34,.52-.65,.17-.6-.02-1.42-.31-1.8-.37-.49-.59-.79-2.03-.04-.94,.49-1.31,.73-1.17,1.14,.13,.38,.76,.97,1.56,1.28,.31,.12,.6,.18,.87,.18h0Zm.04-3.34c.42,0,.69,.23,.99,.62,.32,.43,.55,1.33,.36,2.04-.11,.39-.34,.68-.68,.84-.58,.27-1.24,.11-1.69-.06-.81-.32-1.55-.94-1.73-1.46-.23-.67,.45-1.03,1.31-1.48,.65-.34,1.1-.49,1.45-.49h0Zm-.78-.08l.1,.09-.1,.1c-.58,.01-1.82,.66-1.91,.94l-.13,.06-.07-.12c.13-.41,1.51-1.07,2.1-1.08h0Z"/>
    <path class="cls-8" d="M29.24,47.67l-.1-.09,.1-.1c.58-.01,1.82-.66,1.91-.94l.13-.06,.07,.12c-.13,.41-1.51,1.07-2.1,1.08h0Z"/>
    <path class="cls-8" d="M29.24,3.64l-.1,.09,.1,.1c.58,.01,1.82,.66,1.91,.94l.13,.06,.07-.12c-.13-.41-1.51-1.07-2.1-1.08h0Z"/>
    <path class="cls-11" d="M32.24,42.74c-.36,0-.67,.08-.91,.24-.25,.16-.39,.4-.42,.72-.06,.56,.25,1.21,.57,1.52,.51,.49,1.08,.86,2.28-.02,.49-.36,1-.9,.66-1.49-.21-.37-.86-.75-1.55-.9-.22-.05-.43-.07-.63-.07h0Zm.24,3.28c-.53,0-.9-.29-1.23-.6-.37-.35-.72-1.08-.66-1.75,.04-.4,.23-.72,.55-.93,.45-.29,1.08-.37,1.79-.21,.78,.18,1.5,.6,1.75,1.05,.19,.34,.36,1.04-.75,1.84-.6,.44-1.07,.6-1.46,.6h0Z"/>
    <path class="cls-11" d="M32.24,8.57c-.36,0-.67-.08-.91-.24-.25-.16-.39-.4-.42-.72-.06-.56,.25-1.21,.57-1.52,.51-.49,1.08-.86,2.28,.02,.49,.36,1,.9,.66,1.49-.21,.37-.86,.75-1.55,.9-.22,.05-.43,.07-.63,.07h0Zm.24-3.28c-.53,0-.9,.29-1.23,.6-.37,.35-.72,1.08-.66,1.75,.04,.4,.23,.72,.55,.93,.45,.29,1.08,.37,1.79,.21,.78-.18,1.5-.6,1.75-1.05,.19-.34,.36-1.04-.75-1.84-.6-.44-1.07-.6-1.46-.6h0Z"/>
    <path class="cls-5" d="M14.35,42.74c.36,0,.67,.08,.91,.24,.25,.16,.39,.4,.42,.72,.06,.56-.25,1.21-.57,1.52-.51,.49-1.08,.86-2.28-.02-.49-.36-1-.9-.66-1.49,.21-.37,.86-.75,1.55-.9,.22-.05,.43-.07,.63-.07h0Zm-.24,3.28c.53,0,.9-.29,1.23-.6,.37-.35,.72-1.08,.66-1.75-.04-.4-.23-.72-.55-.93-.45-.29-1.08-.37-1.79-.21-.78,.18-1.5,.6-1.75,1.05-.19,.34-.36,1.04,.75,1.84,.6,.44,1.07,.6,1.46,.6h0Zm-.18-.87c.16,0,.32-.03,.47-.09l.05-.13-.14-.04c-.34,.15-.8,.07-1.05-.18-.24-.24-.27-.64-.05-.91l-.02-.13-.14,.02c-.28,.34-.25,.83,.06,1.15,.2,.2,.51,.31,.82,.31h0Z"/>
    <path class="cls-5" d="M14.35,8.57c.36,0,.67-.08,.91-.24,.25-.16,.39-.4,.42-.72,.06-.56-.25-1.21-.57-1.52-.51-.49-1.08-.86-2.28,.02-.49,.36-1,.9-.66,1.49,.21,.37,.86,.75,1.55,.9,.22,.05,.43,.07,.63,.07h0Zm-.24-3.28c.53,0,.9,.29,1.23,.6,.37,.35,.72,1.08,.66,1.75-.04,.4-.23,.72-.55,.93-.45,.29-1.08,.37-1.79,.21-.78-.18-1.5-.6-1.75-1.05-.19-.34-.36-1.04,.75-1.84,.6-.44,1.07-.6,1.46-.6h0Zm-.18,.87c.16,0,.32,.03,.47,.1l.05,.13-.14,.04c-.34-.15-.8-.07-1.05,.18-.24,.24-.27,.64-.05,.91l-.02,.13-.14-.02c-.28-.34-.25-.83,.06-1.15,.2-.2,.51-.31,.82-.31h0Z"/>
    <path class="cls-11" d="M32.66,45.15c-.16,0-.32-.03-.47-.09l-.05-.13,.14-.04c.34,.15,.8,.07,1.05-.18,.24-.24,.27-.64,.05-.91l.02-.13,.14,.02c.28,.34,.25,.83-.06,1.15-.2,.2-.51,.31-.82,.31h0Z"/>
    <path class="cls-11" d="M32.66,6.15c-.16,0-.32,.03-.47,.1l-.05,.13,.14,.04c.34-.15,.8-.07,1.05,.18,.24,.24,.27,.64,.05,.91l.02,.13,.14-.02c.28-.34,.25-.83-.06-1.15-.2-.2-.51-.31-.82-.31h0Z"/>
    <path class="cls-10" d="M35.38,40.49h-.2c-.59,.04-1.07,.23-1.33,.55-.18,.21-.24,.48-.17,.78,.12,.56,.62,1.08,1.02,1.29,.61,.31,1.33,.55,2.21-.64,.63-.84,.34-1.27,.07-1.52-.31-.28-.96-.46-1.6-.46h0Zm.17,3.15c-.37,0-.7-.13-1-.29-.48-.25-1.03-.83-1.17-1.48-.08-.38,0-.73,.23-1.01,.32-.38,.87-.61,1.56-.66,.8-.05,1.64,.17,2.04,.54,.54,.49,.53,1.13-.03,1.88-.57,.77-1.12,1.01-1.62,1.01h0Z"/>
    <path class="cls-10" d="M35.38,10.82h-.2c-.59-.04-1.07-.23-1.33-.55-.18-.21-.24-.48-.17-.78,.12-.56,.62-1.08,1.02-1.29,.61-.31,1.33-.55,2.21,.64,.62,.84,.34,1.27,.07,1.52-.31,.28-.96,.46-1.6,.46h0Zm.17-3.15c-.37,0-.7,.13-1,.29-.48,.25-1.03,.83-1.17,1.48-.08,.38,0,.73,.23,1.01,.32,.38,.87,.61,1.56,.66,.8,.05,1.64-.17,2.04-.54,.54-.49,.53-1.13-.03-1.88-.57-.77-1.12-1.01-1.62-1.01h0Z"/>
    <path class="cls-5" d="M11.21,40.49h.2c.59,.04,1.07,.23,1.33,.55,.18,.21,.24,.48,.17,.78-.12,.56-.62,1.08-1.02,1.29-.61,.31-1.33,.55-2.21-.64-.62-.84-.34-1.27-.07-1.52,.31-.28,.96-.46,1.6-.46h0Zm-.17,3.15c.37,0,.7-.13,1-.29,.48-.25,1.03-.83,1.17-1.48,.08-.38,0-.73-.23-1.01-.32-.38-.87-.61-1.56-.66-.8-.05-1.64,.17-2.04,.54-.54,.49-.53,1.13,.03,1.88,.57,.77,1.12,1.01,1.62,1.01h0Zm.04-.7l.1-.07c.09-.31,.03-.64-.16-.91-.18-.27-.49-.47-.84-.55l-.13,.07,.07,.11c.3,.07,.56,.24,.72,.47,.16,.23,.2,.5,.13,.76l.07,.12h.03Zm.95-.65h.14s.09-.12,.09-.12l-.12-.08c-.33,.04-.68-.09-.87-.33-.19-.23-.21-.55-.05-.8l-.04-.13-.14,.03c-.2,.31-.17,.72,.07,1.01,.2,.26,.56,.41,.92,.41h0Z"/>
    <path class="cls-5" d="M11.21,10.82h.2c.59-.04,1.07-.23,1.33-.55,.18-.21,.24-.48,.17-.78-.12-.56-.62-1.08-1.02-1.29-.61-.31-1.33-.55-2.21,.64-.62,.84-.34,1.27-.07,1.52,.31,.28,.96,.46,1.6,.46h0Zm-.17-3.15c.37,0,.7,.13,1,.29,.48,.25,1.03,.83,1.17,1.48,.08,.38,0,.73-.23,1.01-.32,.38-.87,.61-1.56,.66-.8,.05-1.64-.17-2.04-.54-.54-.49-.53-1.13,.03-1.88,.57-.77,1.12-1.01,1.62-1.01h0Zm.04,.7l.1,.07c.09,.31,.03,.64-.16,.91-.18,.27-.49,.47-.84,.55l-.13-.07,.07-.11c.3-.07,.56-.24,.72-.47,.16-.23,.2-.5,.13-.76l.07-.12h.03Zm.95,.65h.14s.09,.12,.09,.12l-.12,.08c-.33-.04-.68,.09-.87,.33-.19,.23-.21,.55-.05,.8l-.04,.13-.14-.03c-.2-.31-.17-.72,.07-1.01,.2-.26,.56-.41,.92-.41h0Z"/>
    <path class="cls-10" d="M35.52,42.94l-.1-.07c-.09-.31-.03-.64,.16-.91,.18-.27,.49-.47,.84-.55l.13,.07-.07,.11c-.3,.07-.56,.24-.72,.47-.16,.23-.2,.5-.13,.76l-.07,.12h-.03Z"/>
    <path class="cls-10" d="M35.52,8.36l-.1,.07c-.09,.31-.03,.64,.16,.91,.18,.27,.49,.47,.84,.55l.13-.07-.07-.11c-.3-.07-.56-.24-.72-.47-.16-.23-.2-.5-.13-.76l-.07-.12h-.03Z"/>
    <path class="cls-10" d="M34.56,42.3h-.14s-.09-.12-.09-.12l.12-.08c.33,.04,.68-.09,.87-.33,.19-.23,.21-.55,.05-.8l.04-.13,.14,.03c.2,.31,.17,.72-.07,1.01-.2,.26-.56,.41-.92,.41h0Z"/>
    <path class="cls-10" d="M34.56,9.01h-.14s-.09,.12-.09,.12l.12,.08c.33-.04,.68,.09,.87,.33,.19,.23,.21,.55,.05,.8l.04,.13,.14-.03c.2-.31,.17-.72-.07-1.01-.2-.26-.56-.41-.92-.41h0Z"/>
    <path class="cls-2" d="M37.43,37.48h-.16c-.54,.04-.99,.23-1.26,.55h0c-.27,.33-.27,.7-.21,.96,.1,.45,.44,.91,.82,1.11,.61,.31,1.33,.55,2.21-.64,.62-.84,.34-1.27,.07-1.52-.31-.28-.89-.46-1.47-.46h0Zm.04,3.15c-.37,0-.7-.13-1-.28-.46-.24-.86-.76-.97-1.3-.1-.45,0-.86,.27-1.19,.32-.39,.85-.62,1.48-.66,.72-.04,1.47,.17,1.87,.54,.54,.49,.53,1.13-.03,1.88-.57,.77-1.12,1.01-1.62,1.01h0Z"/>
    <path class="cls-2" d="M37.43,13.83h-.16c-.54-.04-.99-.23-1.26-.55h0c-.27-.33-.27-.7-.21-.96,.1-.45,.44-.91,.82-1.11,.61-.31,1.33-.55,2.21,.64,.62,.84,.34,1.27,.07,1.52-.31,.28-.89,.46-1.47,.46h0Zm.04-3.15c-.37,0-.7,.13-1,.28-.46,.24-.86,.76-.97,1.3-.1,.45,0,.86,.27,1.19,.32,.39,.85,.62,1.48,.66,.72,.04,1.47-.17,1.87-.54,.54-.49,.53-1.13-.03-1.88-.57-.77-1.12-1.01-1.62-1.01h0Z"/>
    <path class="cls-5" d="M9.16,37.48h.16c.54,.04,.99,.23,1.26,.55h0c.27,.33,.27,.7,.21,.96-.1,.45-.44,.91-.82,1.11-.61,.31-1.33,.55-2.21-.64-.62-.84-.34-1.27-.07-1.52,.31-.28,.89-.46,1.47-.46h0Zm-.04,3.15c.37,0,.7-.13,1-.28,.46-.24,.86-.76,.97-1.3,.1-.45,0-.86-.27-1.19-.32-.39-.85-.62-1.48-.66-.72-.04-1.47,.17-1.87,.54-.54,.49-.53,1.13,.03,1.88,.57,.77,1.12,1.01,1.62,1.01h0Zm1.01-1.22l.1-.09-.1-.1c-.31-.01-.6-.15-.75-.35-.14-.2-.17-.43-.09-.66l-.05-.13-.13,.03-.02,.04c-.1,.29-.06,.58,.12,.82,.18,.25,.53,.42,.91,.43h0Zm-1.21,.45l.09-.05c.14-.28,.13-.61-.02-.88-.16-.27-.45-.47-.79-.54l-.12,.07,.08,.11c.28,.06,.52,.22,.65,.45,.13,.22,.13,.48,.02,.71l.05,.13h.04Z"/>
    <path class="cls-5" d="M9.16,13.83h.16c.54-.04,.99-.23,1.26-.55h0c.27-.33,.27-.7,.21-.96-.1-.45-.44-.91-.82-1.11-.61-.31-1.33-.55-2.21,.64-.62,.84-.34,1.27-.07,1.52,.31,.28,.89,.46,1.47,.46h0Zm-.04-3.15c.37,0,.7,.13,1,.28,.46,.24,.86,.76,.97,1.3,.1,.45,0,.86-.27,1.19-.32,.39-.85,.62-1.48,.66-.72,.04-1.47-.17-1.87-.54-.54-.49-.53-1.13,.03-1.88,.57-.77,1.12-1.01,1.62-1.01h0Zm1.01,1.22l.1,.09-.1,.1c-.31,.01-.6,.15-.75,.35-.14,.2-.17,.43-.09,.66l-.05,.13-.13-.03-.02-.04c-.1-.29-.06-.58,.12-.82,.18-.25,.53-.42,.91-.43h0Zm-1.21-.45l.09,.05c.14,.28,.13,.61-.02,.88-.16,.27-.45,.47-.79,.54l-.12-.07,.08-.11c.28-.06,.52-.22,.65-.45,.13-.22,.13-.48,.02-.71l.05-.13h.04Z"/>
    <path class="cls-2" d="M36.46,39.41l-.1-.09,.1-.1c.31-.01,.6-.15,.75-.35,.14-.2,.17-.43,.09-.66l.05-.13,.13,.03,.02,.04c.1,.29,.06,.58-.12,.82-.18,.25-.53,.42-.91,.43h0Z"/>
    <path class="cls-2" d="M36.46,11.9l-.1,.09,.1,.1c.31,.01,.6,.15,.75,.35,.14,.2,.17,.43,.09,.66l.05,.13,.13-.03,.02-.04c.1-.29,.06-.58-.12-.82-.18-.25-.53-.42-.91-.43h0Z"/>
    <path class="cls-2" d="M37.66,39.86l-.09-.05c-.14-.28-.13-.61,.02-.88,.16-.27,.45-.47,.79-.54l.12,.07-.08,.11c-.28,.06-.52,.22-.65,.45-.13,.22-.13,.48-.02,.71l-.05,.13h-.04Z"/>
    <path class="cls-2" d="M37.66,11.45l-.09,.05c-.14,.28-.13,.61,.02,.88,.16,.27,.45,.47,.79,.54l.12-.07-.08-.11c-.28-.06-.52-.22-.65-.45-.13-.22-.13-.48-.02-.71l-.05-.13h-.04Z"/>
    <path class="cls-4" d="M38.65,30.94c-.37,0-.76,.06-1.08,.2-.42,.19-.68,.47-.76,.85-.3,1.39,.6,1.71,1.48,1.9,.9,.2,1.58,.07,1.98-1.2,.24-.77,.08-1.25-.5-1.54-.27-.13-.68-.22-1.11-.22h0Zm.22,3.32c-.22,0-.45-.03-.66-.08-.63-.14-2.09-.46-1.71-2.23,.1-.47,.42-.83,.93-1.06,.81-.35,1.89-.27,2.47,.02,.71,.35,.93,.98,.65,1.87-.37,1.18-1.03,1.48-1.69,1.48h0Z"/>
    <path class="cls-4" d="M38.65,20.37c-.37,0-.76-.06-1.08-.2-.42-.19-.68-.47-.76-.85-.3-1.39,.6-1.71,1.48-1.9,.9-.2,1.58-.07,1.98,1.2,.24,.77,.08,1.25-.5,1.54-.27,.13-.68,.22-1.11,.22h0Zm.22-3.32c-.22,0-.45,.03-.66,.08-.63,.14-2.09,.46-1.71,2.23,.1,.47,.42,.83,.93,1.06,.81,.35,1.89,.27,2.47-.02,.71-.35,.93-.98,.65-1.87-.37-1.18-1.03-1.48-1.69-1.48h0Z"/>
    <path class="cls-5" d="M7.94,30.94c.37,0,.76,.06,1.08,.2,.42,.19,.68,.47,.76,.85,.3,1.39-.6,1.71-1.48,1.9-.9,.2-1.58,.07-1.98-1.2-.24-.77-.08-1.25,.5-1.54,.27-.13,.68-.22,1.11-.22h0Zm-.22,3.32c.22,0,.45-.03,.66-.08,.63-.14,2.09-.46,1.71-2.23-.1-.47-.42-.83-.93-1.06-.81-.35-1.89-.27-2.47,.02-.71,.35-.93,.98-.65,1.87,.37,1.18,1.03,1.48,1.69,1.48h0Zm.58-1.52l-.23,.02c-.11,.02-.23,.05-.33,.1,.04-.13,.05-.26,.02-.39-.03-.15-.09-.29-.19-.41,.13,.01,.26,0,.39-.04,.19-.07,.32-.16,.41-.28l.17,.17,.15,.08-.13,.12c-.11,.14-.14,.33-.1,.53l.04,.12h-.21Zm-.88,.53l.08-.03h0s0,0,0,0h0c.15-.16,.37-.27,.6-.31,.22-.04,.44-.01,.64,.07l.05,.02,.13-.05-.04-.12-.04-.02c-.11-.06-.15-.19-.17-.25-.02-.08-.04-.24,.06-.38,.06-.08,.17-.14,.27-.15h.11s.1-.08,.1-.08l-.08-.1h-.13c-.13-.03-.25-.07-.35-.14-.11-.08-.18-.2-.17-.32l-.09-.1-.11,.08c-.02,.15-.09,.3-.4,.42-.27,.1-.65-.06-.66-.07l-.14,.04,.04,.13c.22,.12,.38,.33,.43,.56,.04,.22-.04,.45-.21,.63h0s0,0,0,0v.13s.08,.02,.08,.02h0Z"/>
    <path class="cls-5" d="M7.94,20.37c.37,0,.76-.06,1.08-.2,.42-.19,.68-.47,.76-.85,.3-1.39-.6-1.71-1.48-1.9-.9-.2-1.58-.07-1.98,1.2-.24,.77-.08,1.25,.5,1.54,.27,.13,.68,.22,1.11,.22h0Zm-.22-3.32c.22,0,.45,.03,.66,.08,.63,.14,2.09,.46,1.71,2.23-.1,.47-.42,.83-.93,1.06-.81,.35-1.89,.27-2.47-.02-.71-.35-.93-.98-.65-1.87,.37-1.18,1.03-1.48,1.69-1.48h0Zm.58,1.52l-.23-.02c-.11-.02-.23-.05-.33-.1,.04,.13,.05,.26,.02,.39-.03,.15-.09,.29-.19,.41,.13-.01,.26,0,.39,.04,.19,.07,.32,.16,.41,.28l.17-.17,.15-.08-.13-.12c-.11-.14-.14-.33-.1-.53l.04-.12h-.21Zm-.88-.53l.08,.03h0s0,0,0,0h0c.15,.16,.37,.27,.6,.31,.22,.04,.44,0,.64-.07l.05-.02,.13,.05-.04,.12-.04,.02c-.11,.06-.15,.19-.17,.25-.02,.08-.04,.24,.06,.38,.06,.08,.17,.14,.27,.15h.11s.1,.08,.1,.08l-.08,.1h-.13c-.13,.03-.25,.07-.35,.14-.11,.08-.18,.2-.17,.32l-.09,.1-.11-.08c-.02-.15-.09-.31-.4-.42-.27-.1-.65,.06-.66,.07l-.14-.04,.04-.13c.22-.12,.38-.33,.43-.56,.04-.22-.04-.45-.21-.63h0s0,0,0,0v-.13s.08-.02,.08-.02h0Z"/>
    <path class="cls-4" d="M38.29,32.73l.23,.02c.11,.02,.23,.05,.33,.1-.04-.13-.05-.26-.02-.39,.03-.15,.09-.29,.19-.41-.13,.01-.26,0-.39-.04-.19-.07-.32-.16-.41-.28l-.17,.17-.15,.08,.13,.12c.11,.14,.14,.33,.1,.53l-.04,.12h.21Zm.88,.53l-.08-.03h0s0,0,0,0h0c-.15-.16-.37-.27-.6-.31-.23-.04-.44-.01-.64,.07l-.05,.02-.13-.05,.04-.12,.04-.02c.11-.06,.15-.19,.17-.25,.02-.08,.04-.24-.06-.38-.06-.08-.17-.14-.27-.15h-.11s-.1-.08-.1-.08l.08-.1h.12c.13-.03,.25-.07,.35-.14,.11-.08,.18-.2,.17-.32l.09-.1,.11,.08c.02,.15,.09,.3,.4,.42,.27,.1,.65-.06,.66-.07l.14,.04-.04,.13c-.22,.12-.38,.33-.42,.56-.04,.22,.04,.45,.21,.63h0s0,0,0,0v.13s-.08,.02-.08,.02h0Z"/>
    <path class="cls-4" d="M38.29,18.57l.23-.02c.11-.02,.23-.05,.33-.1-.04,.13-.05,.26-.02,.39,.03,.15,.09,.29,.19,.41-.13-.01-.26,0-.39,.04-.19,.07-.32,.16-.41,.28l-.17-.17-.15-.08,.13-.12c.11-.14,.14-.33,.1-.53l-.04-.12h.21Zm.88-.53l-.08,.03h0s0,0,0,0h0c-.15,.16-.37,.27-.6,.31-.22,.04-.44,0-.64-.07l-.05-.02-.13,.05,.04,.12,.04,.02c.11,.06,.15,.19,.17,.25,.02,.08,.04,.24-.06,.38-.06,.08-.17,.14-.27,.15h-.11s-.1,.08-.1,.08l.08,.1h.12c.13,.03,.25,.07,.35,.14,.11,.08,.18,.2,.17,.32l.09,.1,.11-.08c.02-.15,.09-.31,.4-.42,.27-.1,.65,.06,.66,.07l.14-.04-.04-.13c-.22-.12-.38-.33-.43-.56-.04-.22,.04-.45,.21-.63h0s0,0,0,0v-.13s-.08-.02-.08-.02h0Z"/>
    <path class="cls-6" d="M36.89,35.15c-.46,1.29,.36,1.67,1.16,1.93,.67,.21,1.43,.33,2.03-.96,.33-.7,.24-1.18-.27-1.5-.44-.28-1.35-.44-2.07-.21-.44,.14-.72,.39-.85,.75h0Zm1.85,2.34c-.28,0-.55-.06-.8-.15-.58-.19-1.94-.62-1.35-2.29,.16-.44,.52-.77,1.04-.93,.81-.26,1.83-.08,2.34,.25,.64,.4,.77,1.02,.38,1.85-.46,.99-1.05,1.27-1.62,1.27h0Z"/>
    <path class="cls-6" d="M36.89,16.16c-.46-1.29,.36-1.67,1.16-1.93,.67-.21,1.43-.33,2.03,.96,.33,.7,.24,1.18-.27,1.5-.44,.28-1.35,.44-2.07,.21-.44-.14-.72-.39-.85-.75h0Zm1.85-2.34c-.28,0-.55,.06-.8,.15-.58,.19-1.94,.62-1.35,2.29,.16,.44,.52,.77,1.04,.93,.81,.26,1.83,.08,2.34-.25,.64-.4,.77-1.02,.38-1.85-.46-.99-1.05-1.27-1.62-1.27h0Z"/>
    <path class="cls-5" d="M9.69,35.15c.46,1.29-.36,1.67-1.16,1.93-.67,.21-1.43,.33-2.03-.96-.33-.7-.24-1.18,.27-1.5,.44-.28,1.35-.44,2.07-.21,.44,.14,.72,.39,.85,.75h0Zm-1.85,2.34c.28,0,.55-.06,.8-.15,.58-.19,1.94-.62,1.35-2.29-.16-.44-.52-.77-1.04-.93-.81-.26-1.83-.08-2.34,.25-.64,.4-.77,1.02-.38,1.85,.46,.99,1.05,1.27,1.62,1.27h0Zm.79-1.94l-.23,.19c-.1,.13-.17,.25-.21,.37-.1-.1-.23-.17-.38-.2l-.22-.03c.09-.1,.16-.2,.21-.28,.06-.1,.11-.2,.14-.32,.17,.18,.4,.25,.68,.28h0Zm-.35,.95h.03s.07-.12,.07-.12c-.04-.15,.02-.33,.18-.53,.2-.24,.6-.29,.6-.29l.09-.1-.1-.09c-.71,0-1.07-.04-1.22-.54l-.13-.07-.07,.12c.06,.2,.03,.37-.11,.61-.08,.14-.22,.32-.41,.43l-.18,.08-.04,.12,.13,.05,.18-.08c.14-.05,.3-.05,.45-.02,.19,.05,.35,.18,.43,.35l.09,.06h0Z"/>
    <path class="cls-5" d="M9.69,16.16c.46-1.29-.36-1.67-1.16-1.93-.67-.21-1.43-.33-2.03,.96-.33,.7-.24,1.18,.27,1.5,.44,.28,1.35,.44,2.07,.21,.44-.14,.72-.39,.85-.75h0Zm-1.85-2.34c.28,0,.55,.06,.8,.15,.58,.19,1.94,.62,1.35,2.29-.16,.44-.52,.77-1.04,.93-.81,.26-1.83,.08-2.34-.25-.64-.4-.77-1.02-.38-1.85,.46-.99,1.05-1.27,1.62-1.27h0Zm.79,1.94l-.23-.19c-.1-.13-.17-.25-.21-.37-.1,.1-.23,.17-.38,.2l-.22,.03c.09,.09,.16,.2,.21,.28,.06,.1,.11,.2,.14,.32,.17-.18,.4-.25,.68-.28h0Zm-.35-.95h.03s.07,.12,.07,.12c-.04,.15,.02,.33,.18,.53,.2,.24,.6,.29,.6,.29l.09,.1-.1,.09c-.71,0-1.07,.04-1.22,.54l-.13,.07-.07-.12c.06-.2,.03-.37-.11-.61-.08-.14-.22-.32-.41-.43l-.18-.08-.04-.12,.13-.05,.18,.08c.14,.05,.3,.05,.45,.02,.19-.05,.35-.18,.43-.35l.09-.06h0Z"/>
    <path class="cls-6" d="M37.95,35.55l.23,.19c.1,.13,.17,.25,.21,.37,.1-.1,.23-.17,.38-.2l.22-.03c-.09-.1-.16-.2-.21-.28-.06-.1-.11-.2-.14-.32-.17,.18-.4,.25-.68,.28h0Zm.35,.95h-.03s-.07-.12-.07-.12c.04-.15-.02-.33-.18-.53-.2-.24-.6-.29-.6-.29l-.09-.1,.1-.09c.71,0,1.07-.04,1.22-.54l.13-.07,.07,.12c-.06,.2-.03,.37,.11,.61,.08,.14,.22,.32,.41,.43l.18,.08,.04,.12-.13,.05-.18-.08c-.14-.05-.3-.05-.45-.02-.19,.05-.35,.18-.43,.35l-.09,.06h0Z"/>
    <path class="cls-6" d="M37.95,15.76l.23-.19c.1-.13,.17-.25,.21-.37,.1,.1,.23,.17,.38,.2l.22,.03c-.09,.09-.16,.2-.21,.28-.06,.1-.11,.2-.14,.32-.17-.18-.4-.25-.68-.28h0Zm.35-.95h-.03s-.07,.12-.07,.12c.04,.15-.02,.33-.18,.53-.2,.24-.6,.29-.6,.29l-.09,.1,.1,.09c.71,0,1.07,.04,1.22,.54l.13,.07,.07-.12c-.06-.2-.03-.37,.11-.61,.08-.14,.22-.32,.41-.43l.18-.08,.04-.12-.13-.05-.18,.08c-.14,.05-.3,.05-.45,.02-.19-.05-.35-.18-.43-.35l-.09-.06h0Z"/>
    <path class="cls-7" d="M38.58,27.47c-.41,0-.85,.08-1.18,.28-.35,.21-.54,.53-.57,.95-.09,1.5,.76,1.59,1.58,1.67l.19,.02c.91,.11,1.56-.08,1.74-1.33,.11-.76-.12-1.21-.74-1.44-.25-.09-.63-.16-1.02-.16h0Zm.41,3.24c-.15,0-.29-.01-.43-.03l-.18-.02c-.82-.09-1.95-.2-1.85-1.97,.03-.51,.27-.92,.71-1.18,.7-.42,1.8-.39,2.48-.14,.75,.27,1.07,.86,.94,1.74-.2,1.32-.93,1.6-1.66,1.6h0Z"/>
    <path class="cls-7" d="M38.58,23.84c-.41,0-.85-.08-1.18-.28-.35-.21-.54-.53-.57-.95-.09-1.5,.76-1.59,1.58-1.67l.19-.02c.91-.11,1.56,.08,1.74,1.33,.11,.76-.12,1.21-.74,1.44-.25,.09-.63,.16-1.02,.16h0Zm.41-3.24c-.15,0-.29,.01-.43,.03l-.18,.02c-.82,.08-1.95,.2-1.85,1.97,.03,.51,.27,.92,.71,1.18,.7,.42,1.8,.39,2.48,.14,.75-.27,1.07-.86,.94-1.75-.2-1.32-.93-1.6-1.66-1.6h0Z"/>
    <path class="cls-5" d="M8.01,27.47c.41,0,.85,.08,1.18,.28,.35,.21,.54,.53,.57,.95,.09,1.5-.76,1.59-1.58,1.67l-.19,.02c-.91,.11-1.56-.08-1.74-1.33-.11-.76,.12-1.21,.74-1.44,.25-.09,.63-.16,1.02-.16h0Zm-.41,3.24c.15,0,.29-.01,.43-.03l.18-.02c.82-.09,1.95-.2,1.85-1.97-.03-.51-.27-.92-.71-1.18-.7-.42-1.8-.39-2.48-.14-.75,.27-1.07,.86-.94,1.74,.2,1.32,.93,1.6,1.66,1.6h0Zm.35-1.47c-.16,0-.32,.03-.47,.08,.03-.1,.05-.2,.03-.3-.01-.12-.06-.23-.13-.34,.2,.02,.39,0,.55-.07,.16-.06,.29-.16,.37-.28l.2,.2,.22,.11c-.16,.11-.29,.25-.35,.38-.04,.1-.05,.18-.03,.27-.08-.03-.17-.05-.27-.05h-.12Zm.91,.59l.07-.03v-.13s-.1-.12-.27-.23c-.11-.11-.15-.22-.1-.34,.07-.16,.31-.35,.5-.41l.12-.02,.08-.1-.1-.08h-.13c-.15,.02-.3-.02-.41-.11-.12-.09-.2-.21-.23-.33v-.11s-.11-.08-.11-.08l-.1,.09v.11c-.02,.15-.15,.3-.34,.38-.2,.08-.48,.08-.75,0l-.12,.05,.04,.12c.16,.1,.27,.26,.29,.43,.02,.16-.06,.35-.2,.48v.13s.14,0,.14,0c.21-.17,.51-.25,.8-.23,.19,.02,.35,.09,.47,.16l.27,.22,.06,.02h0Z"/>
    <path class="cls-5" d="M8.01,23.84c.41,0,.85-.08,1.18-.28,.35-.21,.54-.53,.57-.95,.09-1.5-.76-1.59-1.58-1.67l-.19-.02c-.91-.11-1.56,.08-1.74,1.33-.11,.76,.12,1.21,.74,1.44,.25,.09,.63,.16,1.02,.16h0Zm-.41-3.24c.15,0,.29,.01,.43,.03l.18,.02c.82,.08,1.95,.2,1.85,1.97-.03,.51-.27,.92-.71,1.18-.7,.42-1.8,.39-2.48,.14-.75-.27-1.07-.86-.94-1.75,.2-1.32,.93-1.6,1.66-1.6h0Zm.35,1.47c-.16,0-.32-.03-.47-.08,.03,.1,.05,.2,.03,.3-.01,.12-.06,.23-.13,.33,.2-.02,.39,0,.55,.07,.16,.06,.29,.16,.37,.28l.2-.2,.22-.11c-.16-.11-.29-.25-.35-.38-.04-.1-.05-.18-.03-.27-.08,.03-.17,.05-.27,.05h-.12Zm.91-.59l.07,.03v.13s-.1,.12-.27,.24c-.11,.11-.15,.22-.1,.34,.07,.16,.31,.35,.5,.41l.12,.02,.08,.1-.1,.08h-.13c-.15-.02-.3,.02-.41,.11-.12,.09-.2,.21-.23,.33v.11s-.11,.08-.11,.08l-.1-.09v-.11c-.02-.15-.15-.3-.34-.38-.2-.08-.48-.08-.75,0l-.12-.05,.04-.12c.16-.1,.27-.26,.29-.43,.02-.16-.06-.35-.2-.48v-.13s.14,0,.14,0c.21,.17,.51,.25,.8,.23,.19-.02,.35-.09,.47-.16l.27-.22,.06-.02h0Z"/>
    <path class="cls-7" d="M38.64,29.23c.16,0,.32,.03,.47,.08-.03-.1-.05-.2-.03-.3,.01-.12,.06-.23,.13-.34-.2,.02-.39,0-.55-.07-.16-.06-.29-.16-.37-.28l-.2,.2-.22,.11c.16,.11,.29,.25,.35,.38,.04,.1,.05,.18,.03,.27,.08-.03,.17-.05,.27-.05h.12Zm-.91,.59l-.07-.03v-.13s.1-.12,.27-.23c.11-.11,.15-.22,.1-.34-.07-.16-.31-.35-.51-.41l-.12-.02-.08-.1,.1-.08h.13c.15,.02,.3-.02,.41-.11,.12-.09,.2-.21,.23-.33v-.11s.11-.08,.11-.08l.1,.09v.11c.02,.15,.15,.3,.34,.38,.2,.08,.48,.08,.75,0l.12,.05-.04,.12c-.16,.1-.27,.26-.29,.43-.02,.16,.06,.35,.2,.48v.13s-.14,0-.14,0c-.21-.17-.51-.25-.8-.23-.19,.02-.35,.09-.47,.16l-.27,.22-.06,.02h0Z"/>
    <path class="cls-7" d="M38.64,22.07c.16,0,.32-.03,.47-.08-.03,.1-.05,.2-.03,.3,.01,.12,.06,.23,.13,.33-.2-.02-.39,0-.55,.07-.16,.06-.29,.16-.37,.28l-.2-.2-.22-.11c.16-.11,.29-.25,.35-.38,.04-.1,.05-.18,.03-.27,.08,.03,.17,.05,.27,.05h.12Zm-.91-.59l-.07,.03v.13s.1,.12,.27,.24c.11,.11,.15,.22,.1,.34-.07,.16-.31,.35-.5,.41l-.12,.02-.08,.1,.1,.08h.13c.15-.02,.3,.02,.41,.11,.12,.09,.2,.21,.23,.33v.11s.11,.08,.11,.08l.1-.09v-.11c.02-.15,.15-.3,.34-.38,.2-.08,.48-.08,.75,0l.12-.05-.04-.12c-.16-.1-.27-.26-.29-.43-.02-.16,.06-.35,.2-.48v-.13s-.14,0-.14,0c-.21,.17-.51,.25-.8,.23-.19-.02-.35-.09-.47-.16l-.27-.22-.06-.02h0Z"/>
    <path class="cls-14" d="M1.59,22.69H.95v-2.44c-.24,.22-.51,.38-.83,.49v-.59c.17-.05,.35-.16,.55-.31,.2-.15,.33-.33,.41-.54h.52v3.39h0Z"/>
    <path class="cls-14" d="M0,30.73l.63-.08c.02,.16,.07,.28,.16,.37,.09,.09,.19,.13,.32,.13,.13,0,.25-.05,.34-.15,.09-.1,.14-.24,.14-.41,0-.16-.04-.29-.13-.39-.09-.1-.19-.14-.32-.14-.08,0-.18,.02-.3,.05l.07-.53c.17,0,.31-.03,.4-.11,.09-.08,.14-.19,.14-.32,0-.11-.03-.2-.1-.27-.07-.07-.16-.1-.27-.1s-.2,.04-.28,.12c-.08,.08-.13,.19-.14,.34l-.6-.1c.04-.2,.1-.37,.19-.49,.08-.12,.2-.22,.35-.29,.15-.07,.32-.11,.5-.11,.32,0,.57,.1,.76,.3,.16,.17,.24,.35,.24,.56,0,.3-.16,.53-.49,.71,.19,.04,.35,.13,.46,.28,.12,.14,.17,.32,.17,.52,0,.3-.11,.55-.32,.76-.22,.21-.49,.31-.81,.31-.31,0-.56-.09-.76-.26-.2-.18-.32-.41-.35-.69H0Z"/>
    <path class="cls-14" d="M31.84,22.21v.6h-2.27c.02-.23,.1-.44,.22-.65,.12-.2,.37-.47,.73-.81,.29-.27,.47-.46,.54-.55,.09-.13,.13-.27,.13-.4,0-.14-.04-.25-.12-.33-.08-.08-.18-.12-.32-.12s-.24,.04-.32,.12c-.08,.08-.13,.22-.14,.41l-.64-.06c.04-.36,.16-.61,.36-.77,.2-.15,.46-.23,.76-.23,.33,0,.59,.09,.78,.27,.19,.18,.28,.4,.28,.67,0,.15-.03,.3-.08,.43-.05,.14-.14,.28-.26,.43-.08,.1-.22,.24-.42,.43-.2,.19-.33,.31-.39,.37-.05,.06-.1,.12-.13,.18h1.28Z"/>
    <path class="cls-14" d="M30.87,31.96v-.68h-1.38v-.57l1.46-2.14h.54v2.14h.42v.57h-.42v.68h-.63Zm0-1.25v-1.15l-.78,1.15h.78Z"/>
  </g>
</svg>